<svg height="511pt" viewBox="-76 0 511 511.99875" width="511pt" xmlns="http://www.w3.org/2000/svg"><path d="m350.359375 477.867188h-341.328125v-469.328126h264.53125l76.796875 76.800782zm0 0" fill="#e2e4cc"/><path d="m273.5625 8.539062v76.800782h76.796875zm0 0" fill="#d0ccaa"/><path d="m9.03125 349.867188h341.328125v153.597656h-341.328125zm0 0" fill="#e3005d"/><path d="m247.960938 226.582031v-9.414062l-2.535157-.316407c-7.738281-.964843-14.574219-5.945312-17.320312-13.25-.351563-.929687-.726563-1.851562-1.136719-2.757812-3.257812-7.335938-1.882812-15.929688 3.046875-22.269531l1.28125-1.640625-6.65625-6.65625-1.636719 1.273437c-6.339844 4.929688-14.933594 6.304688-22.273437 3.046875-.914063-.402344-1.824219-.785156-2.757813-1.136718-7.300781-2.746094-12.277344-9.582032-13.25-17.320313l-.316406-2.527344h-9.410156l-.316406 2.527344c-.964844 7.738281-5.949219 14.574219-13.253907 17.320313-.929687.351562-1.851562.726562-2.753906 1.136718-7.339844 3.257813-15.933594 1.882813-22.273437-3.046875l-1.636719-1.28125-6.65625 6.65625 1.277343 1.636719c4.933594 6.34375 6.308594 14.925781 3.046876 22.273438-.398438.914062-.785157 1.824218-1.132813 2.757812-2.75 7.304688-9.582031 12.277344-17.324219 13.25l-2.542968.316406v9.410156l2.535156.316407c7.738281.964843 14.574218 5.949219 17.324218 13.253906.347657.929687.722657 1.851563 1.132813 2.753906 3.261719 7.339844 1.886719 15.933594-3.046875 22.273438l-1.277344 1.636719 6.65625 6.65625 1.636719-1.269532c6.339844-4.933594 14.933594-6.308594 22.269531-3.046875.914063.402344 1.828125.785157 2.757813 1.132813 7.304687 2.75 12.28125 9.585937 13.253906 17.324218l.3125 2.527344h9.414063l.316406-2.527344c.964844-7.738281 5.945312-14.574218 13.25-17.324218.929687-.347656 1.851562-.722656 2.757812-1.132813 7.339844-3.261719 15.929688-1.886719 22.269532 3.046875l1.640624 1.269532 6.65625-6.65625-1.28125-1.636719c-4.933593-6.339844-6.304687-14.925781-3.046874-22.273438.402343-.910156.785156-1.824219 1.136718-2.753906 2.746094-7.304687 9.582032-12.28125 17.320313-13.253906zm0 0" fill="#a09086"/><path d="m162.628906 204.804688h34.132813v34.132812h-34.132813zm0 0" fill="#fff"/><g fill="#4d007e"><path d="m350.359375 512h-341.328125c-4.710938 0-8.53125-3.816406-8.53125-8.535156v-494.925782c0-4.71875 3.820312-8.5312495 8.53125-8.5312495h264.53125c2.261719 0 4.4375.8945315 6.03125 2.4999995l76.800781 76.796876c1.601563 1.597656 2.5 3.765624 2.5 6.035156v418.125c0 4.71875-3.824219 8.535156-8.535156 8.535156zm-332.792969-17.066406h324.261719v-406.0625l-71.800781-71.796875h-252.460938zm0 0"/><path d="m350.359375 93.871094h-76.796875c-4.710938 0-8.535156-3.8125-8.535156-8.53125v-76.800782c0-3.445312 2.082031-6.570312 5.265625-7.882812 3.191406-1.332031 6.859375-.5976562 9.300781 1.851562l76.800781 76.796876c2.4375 2.441406 3.171875 6.109374 1.851563 9.300781-1.324219 3.191406-4.4375 5.265625-7.886719 5.265625zm-68.265625-17.066406h47.667969l-47.667969-47.664063zm0 0"/><path d="m350.359375 512h-341.328125c-4.710938 0-8.53125-3.816406-8.53125-8.535156v-153.597656c0-4.71875 3.820312-8.53125 8.53125-8.53125h341.328125c4.710937 0 8.535156 3.8125 8.535156 8.53125v153.597656c0 4.71875-3.824219 8.535156-8.535156 8.535156zm-332.792969-17.066406h324.261719v-136.53125h-324.261719zm0 0"/><path d="m184.40625 298.667969h-9.421875c-4.300781 0-7.933594-3.207031-8.464844-7.472657l-.3125-2.535156c-.597656-4.753906-3.652343-8.832031-7.800781-10.402344-1.023438-.375-2.109375-.828124-3.175781-1.289062-4.289063-1.929688-9.605469-1.144531-13.59375 1.953125l-1.636719 1.273437c-3.394531 2.660157-8.226562 2.347657-11.273438-.699218l-6.664062-6.65625c-3.046875-3.039063-3.34375-7.878906-.699219-11.273438l1.28125-1.636718c3.140625-4.046876 3.90625-9.234376 1.980469-13.5625-.472656-1.046876-.90625-2.132813-1.316406-3.207032-1.5625-4.148437-5.640625-7.210937-10.402344-7.800781l-2.535156-.3125c-4.273438-.539063-7.472656-4.164063-7.472656-8.464844v-9.421875c0-4.300781 3.199218-7.9375 7.472656-8.464844l2.527344-.316406c4.761718-.589844 8.839843-3.652344 10.402343-7.789062.410157-1.085938.851563-2.167969 1.324219-3.21875 1.917969-4.324219 1.160156-9.515625-1.980469-13.558594l-1.28125-1.636719c-2.644531-3.398437-2.335937-8.238281.699219-11.273437l6.664062-6.65625c3.046876-3.046875 7.878907-3.355469 11.273438-.699219l1.636719 1.269531c3.988281 3.082032 9.3125 3.882813 13.5625 1.972656 1.117187-.488281 2.191406-.929687 3.273437-1.332031 4.082032-1.542969 7.144532-5.625 7.734375-10.375l.3125-2.535156c.53125-4.265625 4.164063-7.476563 8.464844-7.476563h9.421875c4.300781 0 7.9375 3.210938 8.464844 7.476563l.316406 2.535156c.597656 4.75 3.652344 8.832031 7.800781 10.402344 1.023438.375 2.097657.828125 3.164063 1.285156 4.300781 1.921875 9.625 1.144531 13.601562-1.953125l1.640625-1.269531c3.394531-2.65625 8.234375-2.347656 11.269531.699219l6.65625 6.65625c3.039063 3.035156 3.347657 7.867187.707032 11.261718l-1.269532 1.640626c-3.148437 4.050781-3.90625 9.242187-1.980468 13.566406.460937 1.03125.90625 2.117187 1.316406 3.207031 1.570312 4.148437 5.648438 7.210937 10.402344 7.800781l2.523437.316406c4.265625.527344 7.476563 4.164063 7.476563 8.464844v9.421875c0 4.300781-3.199219 7.933594-7.476563 8.464844l-2.523437.3125c-4.761719.589844-8.84375 3.652344-10.394532 7.792969-.417968 1.101562-.863281 2.183594-1.339843 3.25-1.910157 4.292968-1.144531 9.480468 1.996093 13.527344l1.28125 1.644531c2.644532 3.398437 2.335938 8.226562-.710937 11.265625l-6.65625 6.65625c-3.035156 3.035156-7.875 3.34375-11.269531.699218l-1.640625-1.273437c-3.984375-3.105469-9.300781-3.882813-13.558594-1.96875-1.117187.484375-2.191406.929687-3.285156 1.328125-4.078125 1.546875-7.132813 5.625-7.730469 10.378906l-.316406 2.535156c-.535156 4.265626-4.164063 7.472657-8.464844 7.472657zm-34.210938-39.839844c4.070313 0 8.132813.835937 11.941407 2.523437.707031.316407 1.472656.632813 2.234375.914063 6.65625 2.519531 12.007812 7.332031 15.324218 13.457031 3.3125-6.125 8.652344-10.929687 15.257813-13.429687.835937-.308594 1.597656-.625 2.347656-.957031 6.535157-2.902344 13.847657-3.269532 20.648438-1.210938-2.046875-6.800781-1.695313-14.121094 1.222656-20.695312.359375-.78125.664063-1.550782.953125-2.3125 2.492188-6.601563 7.296875-11.945313 13.425781-15.253907-6.128906-3.3125-10.941406-8.664062-13.433593-15.265625-.28125-.753906-.585938-1.519531-.929688-2.273437-2.925781-6.585938-3.285156-13.925781-1.238281-20.726563-6.789063 2.039063-14.128907 1.691406-20.699219-1.226562-.710938-.316406-1.46875-.632813-2.238281-.914063-6.652344-2.507812-12.011719-7.328125-15.324219-13.457031-3.308594 6.128906-8.652344 10.929688-15.265625 13.429688-.828125.308593-1.59375.625-2.347656.957031-6.542969 2.910156-13.855469 3.269531-20.648438 1.210937 2.046875 6.800782 1.699219 14.125-1.222656 20.695313-.339844.765625-.65625 1.535156-.945313 2.3125-2.492187 6.605469-7.296874 11.945312-13.421874 15.257812 6.125 3.308594 10.9375 8.660157 13.429687 15.265625.289063.765625.605469 1.535156.9375 2.300782 2.921875 6.574218 3.277344 13.894531 1.222656 20.695312 2.867188-.855469 5.820313-1.296875 8.769531-1.296875zm97.765626-32.246094h.085937zm0 0"/><path d="m85.832031 281.601562c-2.441406 0-4.875-1.039062-6.5625-3.0625l-42.667969-51.199218c-2.636718-3.164063-2.636718-7.765625 0-10.929688l42.667969-51.199218c3.019531-3.628907 8.394531-4.097657 12.015625-1.09375 3.617188 3.019531 4.113282 8.398437 1.089844 12.023437l-38.117188 45.730469 38.117188 45.730468c3.023438 3.625 2.527344 9.007813-1.089844 12.019532-1.589844 1.332031-3.523437 1.980468-5.453125 1.980468zm0 0"/><path d="m273.5625 281.601562c-1.929688 0-3.867188-.648437-5.460938-1.96875-3.621093-3.023437-4.105468-8.398437-1.09375-12.023437l38.109376-45.730469-38.109376-45.730468c-3.019531-3.625-2.527343-9.011719 1.09375-12.023438 3.617188-3.011719 8.992188-2.535156 12.011719 1.09375l42.667969 51.199219c2.636719 3.164062 2.636719 7.765625 0 10.929687l-42.667969 51.199219c-1.6875 2.015625-4.109375 3.054687-6.550781 3.054687zm0 0"/><path d="m196.761719 247.46875h-34.132813c-4.710937 0-8.53125-3.8125-8.53125-8.53125v-34.132812c0-4.71875 3.820313-8.535157 8.53125-8.535157h34.132813c4.710937 0 8.535156 3.816407 8.535156 8.535157v34.132812c0 4.71875-3.824219 8.53125-8.535156 8.53125zm-25.597657-17.066406h17.066407v-17.066406h-17.066407zm0 0"/><path d="m111.429688 477.867188c-4.710938 0-8.53125-3.816407-8.53125-8.535157v-74.84375c0-1.082031-.878907-1.953125-1.953126-1.953125h-30.226562c-1.074219 0-1.953125.871094-1.953125 1.953125v74.84375c0 4.71875-3.824219 8.535157-8.535156 8.535157-4.710938 0-8.53125-3.816407-8.53125-8.535157v-74.84375c0-10.488281 8.53125-19.019531 19.019531-19.019531h30.226562c10.484376 0 19.019532 8.53125 19.019532 19.019531v74.84375c0 4.71875-3.824219 8.535157-8.535156 8.535157zm0 0"/><path d="m111.429688 435.199219h-51.199219c-4.710938 0-8.53125-3.8125-8.53125-8.53125s3.820312-8.535157 8.53125-8.535157h51.199219c4.710937 0 8.535156 3.816407 8.535156 8.535157s-3.824219 8.53125-8.535156 8.53125zm0 0"/><path d="m183.964844 477.867188h-29.867188c-4.710937 0-8.535156-3.816407-8.535156-8.535157s3.824219-8.53125 8.535156-8.53125h29.867188c7.054687 0 12.796875-5.742187 12.796875-12.800781s-5.742188-12.800781-12.796875-12.800781h-8.535156c-16.46875 0-29.867188-13.394531-29.867188-29.867188 0-16.46875 13.398438-29.863281 29.867188-29.863281h29.867187c4.710937 0 8.53125 3.8125 8.53125 8.53125s-3.820313 8.535156-8.53125 8.535156h-29.867187c-7.058594 0-12.800782 5.742188-12.800782 12.796875 0 7.058594 5.742188 12.800781 12.800782 12.800781h8.535156c16.46875 0 29.863281 13.398438 29.863281 29.867188s-13.394531 29.867188-29.863281 29.867188zm0 0"/><path d="m247.960938 477.867188c-4.710938 0-8.53125-3.816407-8.53125-8.535157v-85.332031c0-4.71875 3.820312-8.53125 8.53125-8.53125 4.710937 0 8.535156 3.8125 8.535156 8.53125v85.332031c0 4.71875-3.824219 8.535157-8.535156 8.535157zm0 0"/><path d="m273.5625 443.734375h-25.601562c-4.710938 0-8.53125-3.816406-8.53125-8.535156v-51.199219c0-4.71875 3.820312-8.53125 8.53125-8.53125h25.601562c18.824219 0 34.132812 15.308594 34.132812 34.132812 0 18.824219-15.308593 34.132813-34.132812 34.132813zm-17.066406-17.066406h17.066406c9.410156 0 17.066406-7.65625 17.066406-17.066407 0-9.414062-7.65625-17.066406-17.066406-17.066406h-17.066406zm0 0"/></g></svg>